<svg width="1200" height="900" viewBox="0 0 1200 900" fill="none" xmlns="http://www.w3.org/2000/svg">
  <defs>
    <linearGradient id="bg" x1="0" y1="0" x2="1200" y2="900" gradientUnits="userSpaceOnUse">
      <stop offset="0" stop-color="#6f8d62"/>
      <stop offset="0.4" stop-color="#4d6c48"/>
      <stop offset="1" stop-color="#2b4a31"/>
    </linearGradient>
    <radialGradient id="mist" cx="0" cy="0" r="1" gradientUnits="userSpaceOnUse" gradientTransform="translate(890 270) rotate(137) scale(540 430)">
      <stop offset="0" stop-color="#c4d39f" stop-opacity="0.7"/>
      <stop offset="1" stop-color="#c4d39f" stop-opacity="0"/>
    </radialGradient>
  </defs>
  <rect width="1200" height="900" fill="url(#bg)"/>
  <rect width="1200" height="900" fill="url(#mist)"/>
  <g opacity="0.75" fill="#c8d6a7">
    <path d="M176 698C266 630 308 548 312 456C258 496 216 568 176 698Z"/>
    <path d="M330 730C442 646 498 560 520 448C448 494 378 574 330 730Z"/>
    <path d="M476 758C602 664 676 560 722 428C628 488 548 582 476 758Z"/>
  </g>
  <g opacity="0.52" fill="#b3c48f">
    <path d="M780 782C876 674 932 550 958 392C886 444 820 558 780 782Z"/>
    <path d="M930 782C1012 674 1060 558 1082 424C1028 474 972 580 930 782Z"/>
  </g>
</svg>
