<svg width="1200" height="1500" viewBox="0 0 1200 1500" fill="none" xmlns="http://www.w3.org/2000/svg">
  <defs>
    <linearGradient id="sky" x1="600" y1="0" x2="600" y2="1500" gradientUnits="userSpaceOnUse">
      <stop offset="0" stop-color="#5f6a73"/>
      <stop offset="0.42" stop-color="#3f4a4b"/>
      <stop offset="1" stop-color="#253129"/>
    </linearGradient>
    <linearGradient id="sun" x1="600" y1="520" x2="600" y2="1400" gradientUnits="userSpaceOnUse">
      <stop offset="0" stop-color="#f0d7a2" stop-opacity="0.9"/>
      <stop offset="1" stop-color="#f0d7a2" stop-opacity="0"/>
    </linearGradient>
    <radialGradient id="mist" cx="0" cy="0" r="1" gradientUnits="userSpaceOnUse" gradientTransform="translate(670 460) rotate(90) scale(780 540)">
      <stop offset="0" stop-color="#cfe2a7" stop-opacity="0.65"/>
      <stop offset="1" stop-color="#cfe2a7" stop-opacity="0"/>
    </radialGradient>
    <linearGradient id="path" x1="600" y1="760" x2="600" y2="1500" gradientUnits="userSpaceOnUse">
      <stop offset="0" stop-color="#d3b78a"/>
      <stop offset="0.5" stop-color="#b38e5d"/>
      <stop offset="1" stop-color="#8a6944"/>
    </linearGradient>
    <linearGradient id="frond" x1="0" y1="0" x2="1" y2="1">
      <stop offset="0" stop-color="#d8ec68"/>
      <stop offset="1" stop-color="#8eb23b"/>
    </linearGradient>
    <linearGradient id="plant" x1="0" y1="0" x2="0" y2="1">
      <stop offset="0" stop-color="#7db72d"/>
      <stop offset="1" stop-color="#466f1e"/>
    </linearGradient>
  </defs>

  <rect width="1200" height="1500" fill="#17221b"/>
  <rect width="1200" height="1500" fill="url(#sky)"/>
  <rect width="1200" height="1500" fill="url(#mist)"/>
  <rect x="0" y="0" width="165" height="1500" fill="#3b3228"/>
  <rect x="170" y="0" width="18" height="1500" fill="#241f19" opacity="0.8"/>
  <rect x="1180" y="0" width="20" height="1500" fill="#4d3722" opacity="0.9"/>

  <g opacity="0.38" stroke="#dbe2ca" stroke-width="8">
    <path d="M310 0V790"/>
    <path d="M425 0V940"/>
    <path d="M550 0V1110"/>
    <path d="M680 0V1040"/>
    <path d="M820 0V980"/>
    <path d="M965 0V860"/>
  </g>

  <g opacity="0.62" fill="#d5dbcb">
    <rect x="250" y="90" width="90" height="100" opacity="0.5"/>
    <rect x="365" y="120" width="120" height="140" opacity="0.55"/>
    <rect x="525" y="60" width="105" height="150" opacity="0.48"/>
    <rect x="660" y="80" width="140" height="175" opacity="0.5"/>
    <rect x="835" y="110" width="110" height="135" opacity="0.45"/>
    <rect x="985" y="70" width="80" height="110" opacity="0.42"/>
  </g>

  <path d="M534 1510C488 1290 500 1080 607 860C710 1080 718 1290 678 1510H534Z" fill="url(#path)"/>
  <path d="M498 1218C554 1110 628 1040 711 978C745 1064 754 1154 741 1237C652 1276 576 1282 498 1218Z" fill="#c2a273" opacity="0.48"/>

  <g opacity="0.98">
    <path d="M360 1010C442 740 550 580 610 420C625 565 590 718 510 866C466 948 418 1010 360 1010Z" fill="url(#frond)"/>
    <path d="M815 1015C742 756 673 596 610 420C592 560 618 706 694 858C734 943 772 1008 815 1015Z" fill="url(#frond)"/>
    <path d="M310 965C364 805 448 662 556 520C541 649 494 781 414 911C377 974 341 1003 310 965Z" fill="#b2d24a" opacity="0.92"/>
    <path d="M888 980C830 812 742 664 634 520C648 652 694 785 777 918C817 982 855 1008 888 980Z" fill="#b2d24a" opacity="0.92"/>
  </g>

  <g opacity="0.9" stroke="#88a73f" stroke-width="10" stroke-linecap="round">
    <path d="M368 895C466 820 520 734 565 640"/>
    <path d="M402 840C500 770 556 688 596 598"/>
    <path d="M445 790C530 728 586 658 624 585"/>
    <path d="M804 910C720 835 666 746 624 640"/>
    <path d="M770 850C698 785 650 708 611 625"/>
    <path d="M726 790C658 730 612 663 579 594"/>
  </g>

  <g fill="#5c8c2c" opacity="0.92">
    <path d="M170 1070C215 1000 292 946 400 930C356 1008 312 1060 250 1100C210 1100 186 1092 170 1070Z"/>
    <path d="M1080 1080C1038 1008 962 956 860 936C906 1010 950 1063 1016 1104C1056 1100 1076 1090 1080 1080Z"/>
    <path d="M190 1210C255 1140 348 1098 456 1088C400 1160 332 1216 250 1250C214 1248 198 1230 190 1210Z"/>
    <path d="M1012 1210C944 1144 852 1102 744 1088C798 1160 866 1215 946 1250C984 1248 1002 1230 1012 1210Z"/>
  </g>

  <g opacity="0.85" fill="#c27bb0">
    <rect x="338" y="1024" width="18" height="110" rx="9"/>
    <rect x="368" y="1002" width="18" height="132" rx="9"/>
    <rect x="396" y="1030" width="18" height="114" rx="9"/>
    <rect x="432" y="996" width="18" height="144" rx="9"/>
    <rect x="468" y="1026" width="18" height="114" rx="9"/>
    <rect x="790" y="1002" width="18" height="132" rx="9"/>
    <rect x="824" y="1028" width="18" height="116" rx="9"/>
    <rect x="858" y="996" width="18" height="146" rx="9"/>
    <rect x="892" y="1020" width="18" height="122" rx="9"/>
  </g>

  <g opacity="0.9" fill="#7ab33a">
    <path d="M286 1130C318 1094 344 1088 380 1088C352 1120 324 1140 286 1130Z"/>
    <path d="M338 1154C368 1120 394 1114 428 1114C402 1146 374 1164 338 1154Z"/>
    <path d="M810 1130C842 1094 868 1088 904 1088C876 1120 848 1140 810 1130Z"/>
    <path d="M760 1154C790 1120 816 1114 850 1114C824 1146 796 1164 760 1154Z"/>
  </g>

  <rect width="1200" height="1500" fill="url(#sun)"/>
</svg>
