<svg width="800" height="800" viewBox="0 0 800 800" fill="none" xmlns="http://www.w3.org/2000/svg">
  <defs>
    <linearGradient id="bg" x1="110" y1="120" x2="700" y2="720" gradientUnits="userSpaceOnUse">
      <stop offset="0" stop-color="#d5f0b6"/>
      <stop offset="1" stop-color="#96bf72"/>
    </linearGradient>
    <linearGradient id="shirt" x1="340" y1="150" x2="460" y2="360" gradientUnits="userSpaceOnUse">
      <stop offset="0" stop-color="#1e5d55"/>
      <stop offset="1" stop-color="#143c39"/>
    </linearGradient>
    <linearGradient id="skin" x1="220" y1="420" x2="580" y2="620" gradientUnits="userSpaceOnUse">
      <stop offset="0" stop-color="#f0c79f"/>
      <stop offset="1" stop-color="#b96f4c"/>
    </linearGradient>
    <linearGradient id="soil" x1="300" y1="390" x2="500" y2="610" gradientUnits="userSpaceOnUse">
      <stop offset="0" stop-color="#553427"/>
      <stop offset="1" stop-color="#1f1712"/>
    </linearGradient>
    <linearGradient id="leaf" x1="0" y1="0" x2="0" y2="1">
      <stop offset="0" stop-color="#a8eb65"/>
      <stop offset="1" stop-color="#4f8a28"/>
    </linearGradient>
  </defs>

  <rect width="800" height="800" rx="70" fill="url(#bg)"/>

  <g opacity="0.9">
    <path d="M290 260C310 208 344 178 396 160C392 220 376 264 346 296C318 290 300 280 290 260Z" fill="url(#shirt)"/>
    <path d="M510 260C490 208 456 178 404 160C408 220 424 264 454 296C482 290 500 280 510 260Z" fill="url(#shirt)"/>
    <path d="M276 428C206 454 148 514 126 582C170 612 224 614 274 586C290 542 292 492 276 428Z" fill="url(#skin)"/>
    <path d="M524 428C594 454 652 514 674 582C630 612 576 614 526 586C510 542 508 492 524 428Z" fill="url(#skin)"/>
    <path d="M288 420C332 388 370 376 402 376C434 376 472 388 516 420C506 504 466 560 402 578C338 560 298 504 288 420Z" fill="url(#soil)"/>
  </g>

  <g stroke="#f5d8b2" stroke-width="14" stroke-linecap="round" opacity="0.65">
    <path d="M232 500C286 474 334 470 392 480"/>
    <path d="M568 500C514 474 466 470 408 480"/>
  </g>

  <g fill="#e9c08f" opacity="0.95">
    <path d="M220 522C260 488 312 472 374 474C326 526 280 556 234 558C220 548 214 538 220 522Z"/>
    <path d="M580 522C540 488 488 472 426 474C474 526 520 556 566 558C580 548 586 538 580 522Z"/>
  </g>

  <g fill="url(#leaf)">
    <path d="M366 354C334 304 316 262 314 216C354 232 390 260 420 304C408 332 390 348 366 354Z"/>
    <path d="M430 350C462 304 480 262 482 216C442 232 406 260 376 304C388 332 406 348 430 350Z"/>
    <path d="M400 360C390 312 388 274 396 234C418 266 434 302 444 342C430 356 416 362 400 360Z"/>
  </g>

  <g stroke="#f2dfbe" stroke-width="6" stroke-linecap="round" opacity="0.45">
    <path d="M358 560C392 534 432 528 478 540"/>
    <path d="M338 534C386 512 434 512 486 530"/>
  </g>

  <circle cx="402" cy="452" r="50" fill="#1e1711" opacity="0.18"/>
</svg>
