<svg width="1280" height="93" viewBox="0 0 1280 93" fill="none" xmlns="http://www.w3.org/2000/svg">
<rect width="1280" height="93" fill="#F4FFC8" fill-opacity="0.9"/>
<path d="M60.7836 40.7591L59.7676 43.9444L58.8383 47.1271H57.8024L58.2202 44.6086L52.9441 44.5689L53.3267 43.3186L58.6126 43.2735L59.7478 40.7591H60.7836ZM63.8585 40.61H63.1798L62.1772 36.6557L62.8054 37.1088H55.0187L55.4549 35.8H62.5335L64.2828 34.9902H64.6137L63.8585 40.61ZM52.8523 50.9232L54.3756 51.5205L54.2332 52H47.256L47.3997 51.5205L49.2536 50.867L53.5248 36.8767L52.0002 36.2795L52.1439 35.8H57.4706L52.8523 50.9232ZM66.8166 37.4389C66.6818 37.2757 66.5396 37.1235 66.39 36.9823C66.2404 36.8411 66.0781 36.7033 65.903 36.5688C65.7279 36.4343 65.5289 36.2969 65.3061 36.1568L65.461 35.6377L70.5485 34.8075H70.9248L65.7359 51.0744L65.1769 50.2927C65.5761 50.3243 65.9687 50.2908 66.3545 50.192C66.7404 50.0933 67.1386 49.9124 67.5492 49.6493C67.9597 49.3862 68.3958 49.0267 68.8574 48.571L69.2821 48.9916C68.667 49.8004 68.0542 50.4484 67.4437 50.9357C66.8333 51.4231 66.2339 51.7752 65.6456 51.9922C65.0573 52.2093 64.4828 52.3178 63.922 52.3178C63.2763 52.3178 62.8441 52.2043 62.6252 51.9773C62.4064 51.7503 62.3802 51.3826 62.5467 50.8741L66.8166 37.4389ZM76.6536 41.0906C77.5371 41.0906 78.28 41.2583 78.8826 41.5936C79.4851 41.9289 79.9413 42.4016 80.2512 43.0116C80.5612 43.6216 80.7162 44.3414 80.7162 45.171C80.7162 46.1539 80.545 47.0764 80.2026 47.9386C79.8603 48.8007 79.3867 49.56 78.7818 50.2164C78.177 50.8728 77.4779 51.3871 76.6846 51.7594C75.8912 52.1316 75.0403 52.3178 74.1318 52.3178C73.2512 52.3178 72.5089 52.1501 71.905 51.8148C71.3011 51.4794 70.8441 51.0059 70.5342 50.3942C70.2243 49.7825 70.0693 49.0636 70.0693 48.2374C70.0693 47.2545 70.2405 46.332 70.5828 45.4698C70.9251 44.6076 71.3988 43.8483 72.0036 43.192C72.6085 42.5356 73.3076 42.0212 74.1009 41.649C74.8942 41.2767 75.7451 41.0906 76.6536 41.0906ZM74.0915 51.2476C74.4119 51.2476 74.7395 51.0959 75.0743 50.7926C75.4092 50.4892 75.7291 50.0787 76.034 49.5611C76.3389 49.0435 76.6117 48.4596 76.8525 47.8095C77.0932 47.1593 77.2841 46.4856 77.4252 45.7884C77.5663 45.0911 77.6368 44.4139 77.6368 43.7568C77.6368 43.1661 77.5589 42.7524 77.403 42.5158C77.2472 42.2791 77.0108 42.1608 76.694 42.1608C76.3736 42.1608 76.046 42.3124 75.7111 42.6158C75.3763 42.9191 75.0564 43.3296 74.7515 43.8472C74.4465 44.3649 74.1737 44.9487 73.933 45.5989C73.6923 46.249 73.5014 46.9227 73.3603 47.62C73.2192 48.3173 73.1486 48.9944 73.1486 49.6516C73.1486 50.2392 73.2266 50.6521 73.3824 50.8903C73.5382 51.1285 73.7746 51.2476 74.0915 51.2476ZM91.3561 41.4084H94.5127L92.6261 48.2106C92.5625 48.4467 92.5144 48.6628 92.4818 48.8588C92.4492 49.0548 92.4329 49.23 92.4329 49.3843C92.4329 49.7446 92.5144 50.0075 92.6773 50.173C92.8402 50.3384 93.0759 50.4211 93.3843 50.4211C93.7083 50.4211 94.0432 50.3219 94.3892 50.1234C94.7351 49.9249 95.0699 49.6542 95.3935 49.3111C95.7171 48.968 96.0088 48.5749 96.2686 48.1318C96.5284 47.6887 96.734 47.2233 96.8853 46.7356C97.0366 46.2479 97.1122 45.761 97.1122 45.2748C97.1122 44.9131 97.0362 44.6132 96.8843 44.3752C96.7323 44.1371 96.5585 43.931 96.3629 43.7567C96.1672 43.5824 95.9934 43.4194 95.8414 43.2677C95.6895 43.116 95.6135 42.9479 95.6135 42.7634C95.6135 42.282 95.7802 41.8829 96.1136 41.5662C96.4469 41.2494 96.8347 41.0911 97.2767 41.0911C97.6083 41.0911 97.9005 41.1691 98.1535 41.3251C98.4064 41.4811 98.6043 41.7151 98.7471 42.0271C98.89 42.3391 98.9614 42.7333 98.9614 43.2097C98.9614 44.0802 98.8255 44.9512 98.5538 45.8227C98.282 46.6943 97.9065 47.519 97.4272 48.297C96.9479 49.075 96.3934 49.7655 95.7638 50.3685C95.1341 50.9715 94.4603 51.4472 93.7424 51.7954C93.0245 52.1436 92.2932 52.3178 91.5486 52.3178C90.8325 52.3178 90.2797 52.1819 89.8904 51.9103C89.5011 51.6386 89.3065 51.1706 89.3065 50.5061C89.3065 50.286 89.3291 50.0414 89.3745 49.7724C89.4199 49.5034 89.489 49.2073 89.582 48.8843L90.206 46.753L90.5042 46.8428C90.1433 47.8967 89.7518 48.7767 89.3297 49.4826C88.9076 50.1884 88.4721 50.7493 88.0232 51.1651C87.5742 51.5809 87.1227 51.8769 86.6685 52.0533C86.2143 52.2296 85.771 52.3178 85.3384 52.3178C84.5688 52.3178 83.9756 52.122 83.5588 51.7305C83.1419 51.339 82.9335 50.7862 82.9335 50.0719C82.9335 49.6124 83.0287 49.0824 83.2192 48.4822L84.887 43.3365C84.8662 43.3139 84.8416 43.2956 84.8133 43.2818C84.785 43.2679 84.7477 43.261 84.7012 43.261C84.4156 43.261 84.1547 43.3166 83.9185 43.4278C83.6823 43.5391 83.4412 43.7508 83.1954 44.0629C82.9496 44.3749 82.6659 44.8336 82.3442 45.4388L81.765 45.1745C82.0705 44.408 82.3895 43.7654 82.7223 43.2464C83.055 42.7275 83.4155 42.3125 83.8037 42.0014C84.192 41.6903 84.6182 41.4657 85.0824 41.3275C85.5465 41.1894 86.061 41.1203 86.626 41.1203C86.9525 41.1203 87.2438 41.1302 87.4997 41.1501C87.7556 41.1699 87.9887 41.1973 88.1989 41.2322C88.4091 41.2671 88.5991 41.3078 88.7687 41.3541L86.5619 48.196C86.4664 48.5019 86.3961 48.7683 86.3511 48.9951C86.306 49.222 86.2835 49.4163 86.2835 49.5782C86.2835 49.8621 86.3483 50.0631 86.478 50.1815C86.6076 50.2998 86.7902 50.3589 87.0259 50.3589C87.3523 50.3589 87.6914 50.2011 88.043 49.8855C88.3947 49.57 88.7376 49.1052 89.0718 48.4911C89.406 47.8771 89.7014 47.1195 89.958 46.2183L91.3561 41.4084ZM100.555 49.2655C100.631 49.3312 100.725 49.4364 100.838 49.5811C100.951 49.7258 101.137 49.9798 101.394 50.3431C101.657 50.7059 101.913 50.9592 102.164 51.1031C102.414 51.247 102.669 51.3189 102.928 51.3189C103.224 51.3189 103.482 51.2716 103.702 51.1769C103.922 51.0822 104.094 50.9441 104.217 50.7625C104.34 50.5809 104.402 50.3621 104.402 50.106C104.402 49.8967 104.36 49.6883 104.277 49.4806C104.194 49.273 104.042 49.039 103.82 48.7786C103.599 48.5182 103.273 48.2079 102.845 47.8479C102.425 47.4833 102.085 47.1347 101.827 46.8022C101.569 46.4698 101.382 46.1335 101.266 45.7934C101.151 45.4534 101.093 45.0932 101.093 44.7131C101.093 44.0496 101.264 43.4442 101.606 42.8967C101.949 42.3493 102.44 41.9114 103.082 41.5831C103.723 41.2548 104.487 41.0906 105.374 41.0906C106.075 41.0906 106.637 41.17 107.061 41.3288C107.485 41.4877 107.794 41.7019 107.988 41.9714C108.183 42.241 108.28 42.5406 108.28 42.8703C108.28 43.1284 108.223 43.3503 108.108 43.5358C107.994 43.7213 107.831 43.8637 107.62 43.963C107.409 44.0623 107.158 44.112 106.866 44.112C106.808 44.0367 106.723 43.9305 106.612 43.7934C106.5 43.6563 106.338 43.4294 106.124 43.1127C105.91 42.7955 105.679 42.5478 105.43 42.3697C105.181 42.1915 104.934 42.1025 104.689 42.1025C104.317 42.1025 104.034 42.2016 103.84 42.3998C103.645 42.598 103.548 42.862 103.548 43.1916C103.548 43.3736 103.592 43.563 103.679 43.7599C103.766 43.9568 103.926 44.1902 104.157 44.46C104.389 44.7299 104.719 45.0672 105.149 45.4718C105.58 45.8737 105.92 46.2494 106.168 46.599C106.415 46.9486 106.593 47.2852 106.7 47.6087C106.807 47.9323 106.86 48.2541 106.86 48.5744C106.86 49.2317 106.662 49.8454 106.265 50.4155C105.868 50.9856 105.321 51.4451 104.624 51.7942C103.927 52.1432 103.127 52.3178 102.223 52.3178C101.486 52.3178 100.887 52.2381 100.426 52.0788C99.9643 51.9195 99.6255 51.7069 99.4093 51.441C99.1932 51.1751 99.0851 50.8831 99.0851 50.565C99.0851 50.3046 99.1463 50.0775 99.2687 49.8837C99.3911 49.6899 99.5633 49.5385 99.7851 49.4293C100.007 49.3201 100.264 49.2655 100.555 49.2655ZM123.139 50.9261C123.4 50.9261 123.669 50.9056 123.948 50.8647C124.227 50.8238 124.502 50.7637 124.771 50.6845C125.041 50.6053 125.283 50.5121 125.5 50.4051L124.339 51.3051L126.008 45.8511L124.239 45.2472L124.386 44.7651H131.325L131.178 45.2472L129.608 45.8958L128.298 50.1971L128.586 51.2152L128.544 51.3927C127.964 51.601 127.35 51.7744 126.703 51.9131C126.055 52.0518 125.372 52.1539 124.652 52.2194C123.933 52.285 123.178 52.3178 122.387 52.3178C120.771 52.3178 119.402 52.0535 118.28 51.525C117.158 50.9965 116.305 50.2508 115.72 49.2879C115.135 48.325 114.842 47.1964 114.842 45.9021C114.842 44.6947 115.028 43.5618 115.4 42.5034C115.772 41.445 116.302 40.4861 116.989 39.6265C117.676 38.7669 118.496 38.028 119.448 37.4097C120.4 36.7914 121.459 36.3156 122.624 35.9823C123.789 35.6489 125.032 35.4822 126.353 35.4822C126.838 35.4822 127.307 35.4999 127.761 35.5354C128.215 35.5708 128.665 35.6335 129.11 35.7234C129.556 35.8133 130.003 35.9425 130.453 36.1111L128.736 36.2017L130.574 34.9486H130.968L130.485 41.0639H129.817L128.376 36.7633L129.353 38.0698C128.879 37.6497 128.407 37.341 127.935 37.1436C127.463 36.9463 126.904 36.8476 126.256 36.8476C125.362 36.8476 124.522 36.9921 123.737 37.281C122.951 37.57 122.239 37.9814 121.6 38.5151C120.961 39.0489 120.411 39.6846 119.952 40.4223C119.493 41.16 119.139 41.9771 118.891 42.8738C118.643 43.7705 118.519 44.7246 118.519 45.7361C118.519 46.8591 118.711 47.8066 119.093 48.5785C119.475 49.3504 120.013 49.9347 120.707 50.3312C121.401 50.7278 122.212 50.9261 123.139 50.9261ZM137.666 51.0558L138.973 47.105L139.278 47.1111C138.626 48.1801 138.036 49.0542 137.509 49.7336C136.982 50.4129 136.497 50.9397 136.055 51.3139C135.612 51.6882 135.192 51.9472 134.793 52.0909C134.394 52.2346 133.996 52.3065 133.598 52.3065C133.115 52.3065 132.687 52.2133 132.315 52.0269C131.943 51.8405 131.651 51.5623 131.441 51.1923C131.23 50.8223 131.125 50.3632 131.125 49.8149C131.125 49.1185 131.249 48.3755 131.499 47.586C131.748 46.7965 132.095 46.0242 132.539 45.2691C132.982 44.514 133.501 43.8284 134.094 43.2121C134.687 42.5958 135.33 42.1037 136.022 41.7358C136.714 41.3679 137.43 41.1839 138.171 41.1839C138.73 41.1839 139.226 41.2983 139.659 41.5271C140.092 41.7558 140.489 42.1451 140.85 42.6949L140.286 43.4861C140.199 43.2401 140.044 43.0298 139.821 42.8552C139.597 42.6806 139.301 42.5933 138.93 42.5933C138.504 42.5933 138.079 42.7553 137.657 43.0793C137.235 43.4032 136.834 43.8266 136.456 44.3492C136.077 44.8719 135.743 45.4366 135.452 46.0433C135.162 46.6499 134.932 47.2392 134.764 47.8111C134.595 48.3829 134.511 48.875 134.511 49.2872C134.511 49.5903 134.569 49.8037 134.686 49.9274C134.803 50.0512 134.989 50.1131 135.245 50.1131C135.472 50.1131 135.735 50.0325 136.036 49.8714C136.336 49.7102 136.649 49.4738 136.974 49.1621C137.299 48.8503 137.617 48.469 137.927 48.018C138.237 47.5671 138.514 47.0556 138.757 46.4837L140.361 42.3353L141.575 41.4084H143.84L140.695 51.093L140.242 50.2765C140.572 50.2648 140.911 50.1932 141.258 50.0619C141.605 49.9306 141.966 49.7285 142.343 49.4557C142.72 49.1828 143.115 48.8311 143.528 48.4008L143.967 48.8093C143.085 50.0289 142.232 50.9186 141.408 51.4782C140.584 52.0379 139.788 52.3178 139.02 52.3178C138.423 52.3178 138.013 52.2152 137.788 52.01C137.564 51.8049 137.523 51.4868 137.666 51.0558ZM147.819 43.3365C147.798 43.3145 147.773 43.2964 147.745 43.2822C147.717 43.2681 147.679 43.261 147.633 43.261C147.338 43.261 147.067 43.3131 146.819 43.4175C146.571 43.5218 146.321 43.7289 146.068 44.0387C145.816 44.3484 145.528 44.8151 145.207 45.4388L144.648 45.2159C145.019 44.1594 145.429 43.3334 145.878 42.7377C146.327 42.142 146.818 41.7212 147.351 41.4753C147.884 41.2294 148.457 41.1065 149.071 41.1065C149.342 41.1065 149.585 41.1152 149.801 41.1326C150.017 41.15 150.234 41.1764 150.451 41.2119C150.669 41.2474 150.907 41.2949 151.166 41.3545L149.523 47.0004L149.418 46.7602C150.045 45.35 150.652 44.2314 151.24 43.4043C151.829 42.5772 152.399 41.9848 152.95 41.6271C153.502 41.2694 154.034 41.0906 154.548 41.0906C155.12 41.0906 155.549 41.2394 155.835 41.5369C156.12 41.8345 156.263 42.2287 156.263 42.7197C156.263 43.0887 156.174 43.4191 155.996 43.711C155.817 44.003 155.58 44.233 155.286 44.401C154.991 44.569 154.666 44.653 154.311 44.653C154.179 44.653 154.065 44.6084 153.972 44.5192C153.878 44.43 153.774 44.2839 153.659 44.0808C153.544 43.8752 153.428 43.7286 153.309 43.6411C153.191 43.5536 153.052 43.5098 152.892 43.5098C152.693 43.5098 152.474 43.59 152.234 43.7505C151.994 43.9109 151.744 44.1504 151.484 44.469C151.224 44.7876 150.96 45.1845 150.693 45.6598C150.425 46.1351 150.16 46.687 149.898 47.3155C149.636 47.944 149.386 48.6484 149.148 49.4285L148.358 52H145.159L147.819 43.3365ZM164.241 43.5351C164.149 43.2545 163.989 43.0205 163.761 42.8331C163.532 42.6457 163.227 42.552 162.847 42.552C162.412 42.552 161.984 42.716 161.564 43.0441C161.143 43.3721 160.748 43.8005 160.377 44.3291C160.006 44.8577 159.679 45.427 159.396 46.0371C159.113 46.6471 158.891 47.2381 158.729 47.8101C158.567 48.3821 158.486 48.8708 158.486 49.276C158.486 49.5818 158.545 49.7978 158.662 49.9239C158.779 50.05 158.965 50.1131 159.22 50.1131C159.406 50.1131 159.627 50.0539 159.882 49.9354C160.136 49.817 160.409 49.638 160.698 49.3985C160.988 49.159 161.28 48.8608 161.575 48.5038C161.869 48.1468 162.152 47.7267 162.424 47.2436C162.695 46.7605 162.939 46.2183 163.154 45.6171L165.788 37.6082C165.653 37.4081 165.506 37.2222 165.346 37.0505C165.187 36.8788 165.018 36.7174 164.84 36.5662C164.662 36.415 164.475 36.2785 164.28 36.1568L164.435 35.6377L169.515 34.8075H169.891L164.631 51.1206L164.09 50.2908C164.422 50.2862 164.765 50.222 165.118 50.098C165.472 49.9741 165.844 49.7743 166.236 49.4987C166.627 49.2231 167.041 48.8571 167.478 48.4008L167.917 48.8093C167.033 50.0255 166.176 50.9142 165.347 51.4757C164.518 52.0371 163.719 52.3178 162.951 52.3178C162.349 52.3178 161.935 52.2126 161.711 52.0023C161.487 51.792 161.448 51.4639 161.596 51.018L162.894 47.1094L163.195 47.1111C162.535 48.1908 161.945 49.0713 161.422 49.7524C160.899 50.4335 160.421 50.9591 159.987 51.3291C159.554 51.6991 159.141 51.9546 158.749 52.0953C158.357 52.2361 157.965 52.3065 157.573 52.3065C157.09 52.3065 156.662 52.2133 156.29 52.0269C155.918 51.8405 155.627 51.5611 155.416 51.1886C155.206 50.8161 155.1 50.3544 155.1 49.8037C155.1 49.1076 155.222 48.3639 155.465 47.5726C155.709 46.7814 156.048 46.0061 156.485 45.2468C156.921 44.4875 157.433 43.7986 158.021 43.1802C158.608 42.5617 159.246 42.0668 159.935 41.6957C160.623 41.3245 161.341 41.1389 162.088 41.1389C162.655 41.1389 163.157 41.2588 163.596 41.4986C164.035 41.7385 164.436 42.1447 164.8 42.7174L164.241 43.5351ZM174.997 42.161C174.669 42.161 174.355 42.272 174.056 42.4941C173.757 42.7161 173.481 43.0199 173.229 43.4056C172.977 43.7912 172.759 44.2308 172.575 44.7244C172.392 45.2179 172.248 45.7392 172.145 46.2882C172.041 46.8372 171.989 47.3852 171.989 47.9321C171.989 48.7311 172.155 49.3021 172.488 49.645C172.82 49.9879 173.271 50.1594 173.841 50.1594C174.254 50.1594 174.637 50.0948 174.989 49.9657C175.341 49.8366 175.68 49.6152 176.007 49.3017C176.334 48.9881 176.66 48.5497 176.985 47.9866L177.671 47.9876C177.208 49.1228 176.724 50.0045 176.217 50.6326C175.711 51.2608 175.16 51.6986 174.564 51.9463C173.969 52.1939 173.298 52.3178 172.55 52.3178C171.719 52.3178 171.015 52.1649 170.438 51.8592C169.861 51.5535 169.423 51.1158 169.125 50.5462C168.827 49.9766 168.678 49.2981 168.678 48.5106C168.678 47.6787 168.795 46.8894 169.029 46.1428C169.263 45.3962 169.593 44.7157 170.018 44.1015C170.443 43.4873 170.939 42.9545 171.506 42.5031C172.073 42.0518 172.691 41.7035 173.359 41.4584C174.028 41.2132 174.724 41.0906 175.448 41.0906C176.195 41.0906 176.794 41.1909 177.244 41.3914C177.695 41.592 178.021 41.8613 178.223 42.1993C178.426 42.5373 178.527 42.913 178.527 43.3264C178.527 43.7072 178.454 44.0804 178.307 44.4458C178.161 44.8112 177.966 45.1242 177.722 45.3846C177.267 45.5748 176.777 45.7628 176.253 45.9487C175.729 46.1347 175.186 46.3142 174.622 46.4874C174.058 46.6605 173.487 46.8253 172.908 46.9817C172.329 47.1381 171.757 47.2842 171.192 47.4198L171.232 46.4705C171.987 46.2191 172.63 45.9818 173.161 45.7586C173.693 45.5353 174.131 45.3205 174.476 45.1142C174.82 44.9079 175.088 44.7007 175.278 44.4926C175.468 44.2845 175.602 44.0685 175.679 43.8445C175.757 43.6206 175.795 43.3819 175.795 43.1287C175.795 42.9183 175.765 42.7423 175.706 42.6007C175.646 42.459 175.557 42.3503 175.441 42.2746C175.324 42.1989 175.176 42.161 174.997 42.161ZM179.599 45.4388L179.04 45.2159C179.411 44.1594 179.821 43.3334 180.27 42.7377C180.719 42.142 181.21 41.7212 181.743 41.4753C182.276 41.2294 182.849 41.1065 183.463 41.1065C183.734 41.1065 183.977 41.1152 184.193 41.1326C184.409 41.15 184.626 41.1764 184.843 41.2119C185.061 41.2474 185.299 41.2949 185.558 41.3545L183.881 47.1041L183.79 46.9313C184.287 45.8728 184.779 44.9726 185.266 44.2306C185.753 43.4887 186.237 42.8881 186.717 42.4286C187.197 41.9692 187.677 41.6332 188.159 41.4207C188.641 41.2081 189.125 41.1019 189.611 41.1019C190.429 41.1019 191.011 41.2794 191.355 41.6344C191.699 41.9894 191.871 42.4427 191.871 42.9944C191.871 43.2832 191.831 43.6147 191.75 43.9886C191.668 44.3626 191.535 44.7871 191.349 45.262L189.09 51.1106L188.615 50.2911C188.976 50.2904 189.335 50.2285 189.693 50.1054C190.05 49.9823 190.426 49.7843 190.818 49.5114C191.211 49.2386 191.634 48.8825 192.086 48.4431L192.518 48.8626C191.892 49.6852 191.283 50.3502 190.691 50.8577C190.099 51.3651 189.522 51.7353 188.961 51.9683C188.399 52.2013 187.844 52.3178 187.295 52.3178C186.609 52.3178 186.161 52.196 185.95 51.9525C185.739 51.709 185.738 51.3187 185.947 50.7816L188.098 45.2733C188.229 44.9374 188.322 44.6759 188.378 44.4891C188.434 44.3022 188.462 44.1432 188.462 44.0121C188.462 43.8318 188.409 43.6878 188.305 43.5801C188.201 43.4724 188.029 43.4186 187.788 43.4186C187.492 43.4186 187.166 43.5416 186.808 43.7877C186.451 44.0338 186.083 44.3981 185.704 44.8807C185.325 45.3633 184.958 45.9621 184.602 46.6771C184.246 47.3921 183.923 48.2182 183.632 49.1554L182.736 52H179.551L182.211 43.3365C182.19 43.3145 182.165 43.2964 182.137 43.2822C182.109 43.2681 182.071 43.261 182.025 43.261C181.73 43.261 181.459 43.3131 181.211 43.4175C180.963 43.5218 180.713 43.7289 180.46 44.0387C180.208 44.3484 179.92 44.8151 179.599 45.4388Z" fill="#23422A"/>
<path d="M463.425 50.62C462.898 50.62 462.415 50.525 461.975 50.335C461.535 50.145 461.153 49.8783 460.83 49.535C460.507 49.1917 460.255 48.7867 460.075 48.32C459.895 47.8533 459.805 47.34 459.805 46.78C459.805 46.22 459.895 45.7067 460.075 45.24C460.255 44.7733 460.507 44.3667 460.83 44.02C461.153 43.6733 461.535 43.405 461.975 43.215C462.415 43.025 462.898 42.93 463.425 42.93C463.932 42.93 464.387 43.02 464.79 43.2C465.193 43.38 465.533 43.6117 465.81 43.895C466.087 44.1783 466.285 44.4767 466.405 44.79L465.685 45.14C465.498 44.6867 465.212 44.33 464.825 44.07C464.438 43.81 463.972 43.68 463.425 43.68C462.878 43.68 462.392 43.81 461.965 44.07C461.538 44.33 461.205 44.6917 460.965 45.155C460.725 45.6183 460.605 46.16 460.605 46.78C460.605 47.3933 460.725 47.9333 460.965 48.4C461.205 48.8667 461.538 49.2283 461.965 49.485C462.392 49.7417 462.878 49.87 463.425 49.87C463.912 49.87 464.35 49.7633 464.74 49.55C465.13 49.3367 465.438 49.045 465.665 48.675C465.892 48.305 466.005 47.88 466.005 47.4V46.99L466.365 47.35H463.425V46.65H466.805V47.27C466.805 47.7567 466.718 48.205 466.545 48.615C466.372 49.025 466.132 49.38 465.825 49.68C465.518 49.98 465.16 50.2117 464.75 50.375C464.34 50.5383 463.898 50.62 463.425 50.62ZM468.465 50.5L471.185 43.05H472.045L474.765 50.5H473.925L473.285 48.68H469.955L469.305 50.5H468.465ZM470.215 47.93H473.005L471.495 43.65H471.735L470.215 47.93ZM476.755 50.5V43.05H477.555V49.75H480.855V50.5H476.755ZM483.065 50.5V43.05H483.865V49.75H487.165V50.5H483.065ZM489.375 50.5V43.05H494.175V43.8H490.175V46.39H493.975V47.14H490.175V49.75H494.175V50.5H489.375ZM496.495 50.5V43.05H499.055C499.542 43.05 499.968 43.145 500.335 43.335C500.702 43.525 500.987 43.7917 501.19 44.135C501.393 44.4783 501.495 44.8767 501.495 45.33C501.495 45.8567 501.357 46.3067 501.08 46.68C500.803 47.0533 500.428 47.3167 499.955 47.47L501.695 50.5H500.755L498.935 47.29L499.475 47.6H497.295V50.5H496.495ZM497.295 46.85H499.095C499.415 46.85 499.695 46.7883 499.935 46.665C500.175 46.5417 500.362 46.365 500.495 46.135C500.628 45.905 500.695 45.6333 500.695 45.32C500.695 45.0067 500.628 44.7367 500.495 44.51C500.362 44.2833 500.175 44.1083 499.935 43.985C499.695 43.8617 499.415 43.8 499.095 43.8H497.295V46.85ZM505.645 50.5V47.04L503.035 43.05H503.925L506.205 46.52H505.885L508.155 43.05H509.045L506.445 47.04V50.5H505.645Z" fill="#75584D"/>
<path d="M552.415 50.5L550.275 43.05H551.085L552.935 49.72H552.765L554.665 43.05H555.515L557.405 49.72H557.225L559.085 43.05H559.895L557.755 50.5H556.905L554.995 43.8H555.175L553.265 50.5H552.415ZM565.195 50.62C564.675 50.62 564.19 50.525 563.74 50.335C563.29 50.145 562.895 49.8783 562.555 49.535C562.215 49.1917 561.948 48.785 561.755 48.315C561.562 47.845 561.465 47.33 561.465 46.77C561.465 46.21 561.562 45.695 561.755 45.225C561.948 44.755 562.215 44.3483 562.555 44.005C562.895 43.6617 563.29 43.3967 563.74 43.21C564.19 43.0233 564.675 42.93 565.195 42.93C565.715 42.93 566.2 43.025 566.65 43.215C567.1 43.405 567.495 43.6717 567.835 44.015C568.175 44.3583 568.442 44.7633 568.635 45.23C568.828 45.6967 568.925 46.21 568.925 46.77C568.925 47.33 568.828 47.845 568.635 48.315C568.442 48.785 568.175 49.1917 567.835 49.535C567.495 49.8783 567.1 50.145 566.65 50.335C566.2 50.525 565.715 50.62 565.195 50.62ZM565.195 49.87C565.628 49.87 566.023 49.79 566.38 49.63C566.737 49.47 567.045 49.2467 567.305 48.96C567.565 48.6733 567.767 48.3433 567.91 47.97C568.053 47.5967 568.125 47.1967 568.125 46.77C568.125 46.35 568.053 45.9533 567.91 45.58C567.767 45.2067 567.565 44.8767 567.305 44.59C567.045 44.3033 566.737 44.08 566.38 43.92C566.023 43.76 565.628 43.68 565.195 43.68C564.762 43.68 564.367 43.76 564.01 43.92C563.653 44.08 563.345 44.3033 563.085 44.59C562.825 44.8767 562.623 45.2067 562.48 45.58C562.337 45.9533 562.265 46.35 562.265 46.77C562.265 47.1967 562.337 47.5967 562.48 47.97C562.623 48.3433 562.825 48.6733 563.085 48.96C563.345 49.2467 563.655 49.47 564.015 49.63C564.375 49.79 564.768 49.87 565.195 49.87ZM571.465 50.5V43.05H574.025C574.512 43.05 574.938 43.145 575.305 43.335C575.672 43.525 575.957 43.7917 576.16 44.135C576.363 44.4783 576.465 44.8767 576.465 45.33C576.465 45.8567 576.327 46.3067 576.05 46.68C575.773 47.0533 575.398 47.3167 574.925 47.47L576.665 50.5H575.725L573.905 47.29L574.445 47.6H572.265V50.5H571.465ZM572.265 46.85H574.065C574.385 46.85 574.665 46.7883 574.905 46.665C575.145 46.5417 575.332 46.365 575.465 46.135C575.598 45.905 575.665 45.6333 575.665 45.32C575.665 45.0067 575.598 44.7367 575.465 44.51C575.332 44.2833 575.145 44.1083 574.905 43.985C574.665 43.8617 574.385 43.8 574.065 43.8H572.265V46.85ZM578.875 50.5V43.05H579.675V47.4L579.495 47.31L583.245 43.05H584.245L581.235 46.47L581.275 45.9L584.425 50.5H583.465L580.925 46.83L579.675 48.25V50.5H578.875ZM588.825 50.62C588.352 50.62 587.922 50.53 587.535 50.35C587.148 50.17 586.822 49.9283 586.555 49.625C586.288 49.3217 586.098 48.9867 585.985 48.62L586.705 48.35C586.878 48.8567 587.148 49.2417 587.515 49.505C587.882 49.7683 588.318 49.9 588.825 49.9C589.145 49.9 589.427 49.8483 589.67 49.745C589.913 49.6417 590.102 49.4967 590.235 49.31C590.368 49.1233 590.435 48.9067 590.435 48.66C590.435 48.2933 590.335 48.01 590.135 47.81C589.935 47.61 589.648 47.4567 589.275 47.35L587.935 46.95C587.408 46.7967 587.003 46.54 586.72 46.18C586.437 45.82 586.295 45.41 586.295 44.95C586.295 44.5567 586.392 44.2083 586.585 43.905C586.778 43.6017 587.043 43.3633 587.38 43.19C587.717 43.0167 588.098 42.93 588.525 42.93C588.972 42.93 589.373 43.0117 589.73 43.175C590.087 43.3383 590.388 43.5533 590.635 43.82C590.882 44.0867 591.058 44.3833 591.165 44.71L590.465 44.99C590.305 44.55 590.057 44.2167 589.72 43.99C589.383 43.7633 588.988 43.65 588.535 43.65C588.248 43.65 587.997 43.7 587.78 43.8C587.563 43.9 587.395 44.0433 587.275 44.23C587.155 44.4167 587.095 44.6367 587.095 44.89C587.095 45.1967 587.192 45.4717 587.385 45.715C587.578 45.9583 587.875 46.14 588.275 46.26L589.455 46.61C590.042 46.7833 590.485 47.0333 590.785 47.36C591.085 47.6867 591.235 48.0967 591.235 48.59C591.235 48.99 591.133 49.3417 590.93 49.645C590.727 49.9483 590.443 50.1867 590.08 50.36C589.717 50.5333 589.298 50.62 588.825 50.62ZM593.775 50.5V43.05H594.575V46.4H598.575V43.05H599.375V50.5H598.575V47.15H594.575V50.5H593.775ZM605.645 50.62C605.125 50.62 604.64 50.525 604.19 50.335C603.74 50.145 603.345 49.8783 603.005 49.535C602.665 49.1917 602.398 48.785 602.205 48.315C602.012 47.845 601.915 47.33 601.915 46.77C601.915 46.21 602.012 45.695 602.205 45.225C602.398 44.755 602.665 44.3483 603.005 44.005C603.345 43.6617 603.74 43.3967 604.19 43.21C604.64 43.0233 605.125 42.93 605.645 42.93C606.165 42.93 606.65 43.025 607.1 43.215C607.55 43.405 607.945 43.6717 608.285 44.015C608.625 44.3583 608.892 44.7633 609.085 45.23C609.278 45.6967 609.375 46.21 609.375 46.77C609.375 47.33 609.278 47.845 609.085 48.315C608.892 48.785 608.625 49.1917 608.285 49.535C607.945 49.8783 607.55 50.145 607.1 50.335C606.65 50.525 606.165 50.62 605.645 50.62ZM605.645 49.87C606.078 49.87 606.473 49.79 606.83 49.63C607.187 49.47 607.495 49.2467 607.755 48.96C608.015 48.6733 608.217 48.3433 608.36 47.97C608.503 47.5967 608.575 47.1967 608.575 46.77C608.575 46.35 608.503 45.9533 608.36 45.58C608.217 45.2067 608.015 44.8767 607.755 44.59C607.495 44.3033 607.187 44.08 606.83 43.92C606.473 43.76 606.078 43.68 605.645 43.68C605.212 43.68 604.817 43.76 604.46 43.92C604.103 44.08 603.795 44.3033 603.535 44.59C603.275 44.8767 603.073 45.2067 602.93 45.58C602.787 45.9533 602.715 46.35 602.715 46.77C602.715 47.1967 602.787 47.5967 602.93 47.97C603.073 48.3433 603.275 48.6733 603.535 48.96C603.795 49.2467 604.105 49.47 604.465 49.63C604.825 49.79 605.218 49.87 605.645 49.87ZM611.915 50.5V43.05H614.475C614.962 43.05 615.388 43.145 615.755 43.335C616.122 43.525 616.407 43.7917 616.61 44.135C616.813 44.4783 616.915 44.8767 616.915 45.33C616.915 45.7833 616.813 46.18 616.61 46.52C616.407 46.86 616.123 47.125 615.76 47.315C615.397 47.505 614.968 47.6 614.475 47.6H612.715V50.5H611.915ZM612.715 46.85H614.515C614.835 46.85 615.115 46.7883 615.355 46.665C615.595 46.5417 615.782 46.365 615.915 46.135C616.048 45.905 616.115 45.6333 616.115 45.32C616.115 45.0067 616.048 44.7367 615.915 44.51C615.782 44.2833 615.595 44.1083 615.355 43.985C615.115 43.8617 614.835 43.8 614.515 43.8H612.715V46.85ZM621.855 50.62C621.382 50.62 620.952 50.53 620.565 50.35C620.178 50.17 619.852 49.9283 619.585 49.625C619.318 49.3217 619.128 48.9867 619.015 48.62L619.735 48.35C619.908 48.8567 620.178 49.2417 620.545 49.505C620.912 49.7683 621.348 49.9 621.855 49.9C622.175 49.9 622.457 49.8483 622.7 49.745C622.943 49.6417 623.132 49.4967 623.265 49.31C623.398 49.1233 623.465 48.9067 623.465 48.66C623.465 48.2933 623.365 48.01 623.165 47.81C622.965 47.61 622.678 47.4567 622.305 47.35L620.965 46.95C620.438 46.7967 620.033 46.54 619.75 46.18C619.467 45.82 619.325 45.41 619.325 44.95C619.325 44.5567 619.422 44.2083 619.615 43.905C619.808 43.6017 620.073 43.3633 620.41 43.19C620.747 43.0167 621.128 42.93 621.555 42.93C622.002 42.93 622.403 43.0117 622.76 43.175C623.117 43.3383 623.418 43.5533 623.665 43.82C623.912 44.0867 624.088 44.3833 624.195 44.71L623.495 44.99C623.335 44.55 623.087 44.2167 622.75 43.99C622.413 43.7633 622.018 43.65 621.565 43.65C621.278 43.65 621.027 43.7 620.81 43.8C620.593 43.9 620.425 44.0433 620.305 44.23C620.185 44.4167 620.125 44.6367 620.125 44.89C620.125 45.1967 620.222 45.4717 620.415 45.715C620.608 45.9583 620.905 46.14 621.305 46.26L622.485 46.61C623.072 46.7833 623.515 47.0333 623.815 47.36C624.115 47.6867 624.265 48.0967 624.265 48.59C624.265 48.99 624.163 49.3417 623.96 49.645C623.757 49.9483 623.473 50.1867 623.11 50.36C622.747 50.5333 622.328 50.62 621.855 50.62Z" fill="#75584D"/>
<path d="M666.815 50.5V43.05H671.615V43.8H667.615V46.39H671.415V47.14H667.615V49.75H671.615V50.5H666.815ZM675.895 50.5L673.165 43.05H673.995L676.395 49.79H676.235L678.625 43.05H679.465L676.735 50.5H675.895ZM681.455 50.5V43.05H686.255V43.8H682.255V46.39H686.055V47.14H682.255V49.75H686.255V50.5H681.455ZM688.575 50.5V43.05H689.275L693.645 49.32H693.375V43.05H694.175V50.5H693.475L689.105 44.19H689.375V50.5H688.575ZM698.225 50.5V43.8H696.165V43.05H701.065V43.8H699.025V50.5H698.225ZM705.565 50.62C705.092 50.62 704.662 50.53 704.275 50.35C703.888 50.17 703.562 49.9283 703.295 49.625C703.028 49.3217 702.838 48.9867 702.725 48.62L703.445 48.35C703.618 48.8567 703.888 49.2417 704.255 49.505C704.622 49.7683 705.058 49.9 705.565 49.9C705.885 49.9 706.167 49.8483 706.41 49.745C706.653 49.6417 706.842 49.4967 706.975 49.31C707.108 49.1233 707.175 48.9067 707.175 48.66C707.175 48.2933 707.075 48.01 706.875 47.81C706.675 47.61 706.388 47.4567 706.015 47.35L704.675 46.95C704.148 46.7967 703.743 46.54 703.46 46.18C703.177 45.82 703.035 45.41 703.035 44.95C703.035 44.5567 703.132 44.2083 703.325 43.905C703.518 43.6017 703.783 43.3633 704.12 43.19C704.457 43.0167 704.838 42.93 705.265 42.93C705.712 42.93 706.113 43.0117 706.47 43.175C706.827 43.3383 707.128 43.5533 707.375 43.82C707.622 44.0867 707.798 44.3833 707.905 44.71L707.205 44.99C707.045 44.55 706.797 44.2167 706.46 43.99C706.123 43.7633 705.728 43.65 705.275 43.65C704.988 43.65 704.737 43.7 704.52 43.8C704.303 43.9 704.135 44.0433 704.015 44.23C703.895 44.4167 703.835 44.6367 703.835 44.89C703.835 45.1967 703.932 45.4717 704.125 45.715C704.318 45.9583 704.615 46.14 705.015 46.26L706.195 46.61C706.782 46.7833 707.225 47.0333 707.525 47.36C707.825 47.6867 707.975 48.0967 707.975 48.59C707.975 48.99 707.873 49.3417 707.67 49.645C707.467 49.9483 707.183 50.1867 706.82 50.36C706.457 50.5333 706.038 50.62 705.565 50.62Z" fill="#75584D"/>
<path d="M749.745 50.5L752.465 43.05H753.325L756.045 50.5H755.205L754.565 48.68H751.235L750.585 50.5H749.745ZM751.495 47.93H754.285L752.775 43.65H753.015L751.495 47.93ZM758.035 50.5V43.05H761.165C761.585 43.05 761.95 43.1283 762.26 43.285C762.57 43.4417 762.81 43.66 762.98 43.94C763.15 44.22 763.235 44.5467 763.235 44.92C763.235 45.3067 763.14 45.6483 762.95 45.945C762.76 46.2417 762.488 46.4667 762.135 46.62L762.125 46.38C762.418 46.4867 762.67 46.6367 762.88 46.83C763.09 47.0233 763.252 47.2483 763.365 47.505C763.478 47.7617 763.535 48.0367 763.535 48.33C763.535 48.9967 763.323 49.525 762.9 49.915C762.477 50.305 761.902 50.5 761.175 50.5H758.035ZM758.835 49.75H761.175C761.648 49.75 762.027 49.625 762.31 49.375C762.593 49.125 762.735 48.78 762.735 48.34C762.735 47.9067 762.593 47.5617 762.31 47.305C762.027 47.0483 761.648 46.92 761.175 46.92H758.835V49.75ZM758.835 46.2H761.105C761.505 46.2 761.827 46.0833 762.07 45.85C762.313 45.6167 762.435 45.3167 762.435 44.95C762.435 44.5767 762.313 44.2917 762.07 44.095C761.827 43.8983 761.505 43.8 761.105 43.8H758.835V46.2ZM769.475 50.62C768.955 50.62 768.47 50.525 768.02 50.335C767.57 50.145 767.175 49.8783 766.835 49.535C766.495 49.1917 766.228 48.785 766.035 48.315C765.842 47.845 765.745 47.33 765.745 46.77C765.745 46.21 765.842 45.695 766.035 45.225C766.228 44.755 766.495 44.3483 766.835 44.005C767.175 43.6617 767.57 43.3967 768.02 43.21C768.47 43.0233 768.955 42.93 769.475 42.93C769.995 42.93 770.48 43.025 770.93 43.215C771.38 43.405 771.775 43.6717 772.115 44.015C772.455 44.3583 772.722 44.7633 772.915 45.23C773.108 45.6967 773.205 46.21 773.205 46.77C773.205 47.33 773.108 47.845 772.915 48.315C772.722 48.785 772.455 49.1917 772.115 49.535C771.775 49.8783 771.38 50.145 770.93 50.335C770.48 50.525 769.995 50.62 769.475 50.62ZM769.475 49.87C769.908 49.87 770.303 49.79 770.66 49.63C771.017 49.47 771.325 49.2467 771.585 48.96C771.845 48.6733 772.047 48.3433 772.19 47.97C772.333 47.5967 772.405 47.1967 772.405 46.77C772.405 46.35 772.333 45.9533 772.19 45.58C772.047 45.2067 771.845 44.8767 771.585 44.59C771.325 44.3033 771.017 44.08 770.66 43.92C770.303 43.76 769.908 43.68 769.475 43.68C769.042 43.68 768.647 43.76 768.29 43.92C767.933 44.08 767.625 44.3033 767.365 44.59C767.105 44.8767 766.903 45.2067 766.76 45.58C766.617 45.9533 766.545 46.35 766.545 46.77C766.545 47.1967 766.617 47.5967 766.76 47.97C766.903 48.3433 767.105 48.6733 767.365 48.96C767.625 49.2467 767.935 49.47 768.295 49.63C768.655 49.79 769.048 49.87 769.475 49.87ZM778.365 50.62C777.838 50.62 777.375 50.51 776.975 50.29C776.575 50.07 776.265 49.7683 776.045 49.385C775.825 49.0017 775.715 48.5633 775.715 48.07V43.05H776.515V48.07C776.515 48.43 776.593 48.745 776.75 49.015C776.907 49.285 777.123 49.495 777.4 49.645C777.677 49.795 777.998 49.87 778.365 49.87C778.732 49.87 779.053 49.795 779.33 49.645C779.607 49.495 779.823 49.285 779.98 49.015C780.137 48.745 780.215 48.43 780.215 48.07V43.05H781.015V48.07C781.015 48.5633 780.905 49.0017 780.685 49.385C780.465 49.7683 780.157 50.07 779.76 50.29C779.363 50.51 778.898 50.62 778.365 50.62ZM785.035 50.5V43.8H782.975V43.05H787.875V43.8H785.835V50.5H785.035Z" fill="#75584D"/>
<rect x="1059.73" y="25.1" width="167.84" height="41.8" rx="22" fill="url(#paint0_linear_1_163)"/>
<g filter="url(#filter1_dd_1_163)">
<rect x="1059.73" y="25.1" width="159.448" height="39.71" rx="20.9" fill="white" fill-opacity="0.01" shape-rendering="crispEdges"/>
</g>
<path d="M1090.88 51.7V50.237H1091.45C1091.9 50.237 1092.25 50.1062 1092.51 49.8446C1092.78 49.5831 1092.91 49.2306 1092.91 48.7873V41.7915H1094.47V48.7407C1094.47 49.3392 1094.35 49.8602 1094.1 50.3035C1093.86 50.7468 1093.51 51.0904 1093.05 51.3342C1092.6 51.5781 1092.06 51.7 1091.45 51.7H1090.88ZM1100.17 51.8596C1099.47 51.8596 1098.84 51.6967 1098.27 51.3708C1097.7 51.045 1097.24 50.5983 1096.91 50.0308C1096.57 49.4634 1096.4 48.8183 1096.4 48.0957C1096.4 47.3731 1096.57 46.7302 1096.9 46.1672C1097.24 45.6042 1097.69 45.1597 1098.26 44.8339C1098.82 44.508 1099.46 44.3451 1100.17 44.3451C1100.87 44.3451 1101.51 44.5069 1102.07 44.8305C1102.64 45.1542 1103.09 45.5975 1103.42 46.1605C1103.75 46.7236 1103.92 47.3686 1103.92 48.0957C1103.92 48.8228 1103.75 49.47 1103.41 50.0375C1103.07 50.605 1102.62 51.0505 1102.05 51.3741C1101.49 51.6978 1100.86 51.8596 1100.17 51.8596ZM1100.17 50.4631C1100.59 50.4631 1100.96 50.3611 1101.29 50.1572C1101.62 49.9533 1101.88 49.6717 1102.07 49.3126C1102.26 48.9535 1102.35 48.5479 1102.35 48.0957C1102.35 47.6435 1102.26 47.2412 1102.07 46.8887C1101.88 46.5363 1101.62 46.257 1101.29 46.0508C1100.96 45.8447 1100.59 45.7416 1100.17 45.7416C1099.74 45.7416 1099.37 45.8447 1099.04 46.0508C1098.71 46.257 1098.45 46.5363 1098.25 46.8887C1098.06 47.2412 1097.96 47.6435 1097.96 48.0957C1097.96 48.5479 1098.06 48.9535 1098.25 49.3126C1098.45 49.6717 1098.71 49.9533 1099.04 50.1572C1099.37 50.3611 1099.74 50.4631 1100.17 50.4631ZM1105.71 51.7V44.5047H1107.21V51.7H1105.71ZM1105.71 43.5205V41.7915H1107.21V43.5205H1105.71ZM1109.3 51.7V44.5047H1110.73V45.9145L1110.57 45.7283C1110.74 45.2805 1111.02 44.9381 1111.41 44.7009C1111.8 44.4637 1112.26 44.3451 1112.77 44.3451C1113.3 44.3451 1113.77 44.4604 1114.18 44.6909C1114.59 44.9214 1114.91 45.2406 1115.14 45.6485C1115.37 46.0564 1115.49 46.5248 1115.49 47.0537V51.7H1113.99V47.4573C1113.99 47.0982 1113.92 46.7923 1113.79 46.5396C1113.66 46.2869 1113.47 46.0907 1113.23 45.9511C1112.99 45.8114 1112.72 45.7416 1112.4 45.7416C1112.09 45.7416 1111.81 45.8114 1111.57 45.9511C1111.33 46.0907 1111.14 46.288 1111 46.5429C1110.87 46.7978 1110.8 47.1026 1110.8 47.4573V51.7H1109.3ZM1124.85 51.8596C1124.15 51.8596 1123.5 51.7321 1122.9 51.4772C1122.3 51.2223 1121.78 50.8654 1121.34 50.4066C1120.9 49.9477 1120.56 49.408 1120.31 48.7873C1120.07 48.1666 1119.94 47.4861 1119.94 46.7457C1119.94 46.0054 1120.06 45.3238 1120.31 44.7009C1120.55 44.078 1120.89 43.5371 1121.34 43.0783C1121.78 42.6194 1122.3 42.2636 1122.89 42.0109C1123.49 41.7582 1124.14 41.6319 1124.85 41.6319C1125.55 41.6319 1126.17 41.7516 1126.73 41.991C1127.28 42.2304 1127.75 42.5441 1128.13 42.932C1128.52 43.3199 1128.79 43.74 1128.95 44.1922L1127.54 44.8505C1127.34 44.3229 1127 43.8929 1126.53 43.5604C1126.07 43.2279 1125.51 43.0616 1124.85 43.0616C1124.19 43.0616 1123.61 43.2168 1123.11 43.5272C1122.6 43.8375 1122.21 44.2675 1121.93 44.8173C1121.65 45.367 1121.51 46.0098 1121.51 46.7457C1121.51 47.4772 1121.65 48.1201 1121.93 48.6742C1122.21 49.2284 1122.6 49.6596 1123.11 49.9677C1123.61 50.2758 1124.19 50.4298 1124.85 50.4298C1125.51 50.4298 1126.07 50.2647 1126.53 49.9344C1127 49.6041 1127.34 49.1752 1127.54 48.6476L1128.95 49.306C1128.79 49.7538 1128.52 50.1716 1128.13 50.5595C1127.75 50.9474 1127.28 51.2611 1126.73 51.5005C1126.17 51.7399 1125.55 51.8596 1124.85 51.8596ZM1134.09 51.8596C1133.4 51.8596 1132.77 51.6967 1132.2 51.3708C1131.63 51.045 1131.17 50.5983 1130.84 50.0308C1130.5 49.4634 1130.33 48.8183 1130.33 48.0957C1130.33 47.3731 1130.5 46.7302 1130.83 46.1672C1131.17 45.6042 1131.62 45.1597 1132.19 44.8339C1132.75 44.508 1133.39 44.3451 1134.09 44.3451C1134.8 44.3451 1135.43 44.5069 1136 44.8305C1136.56 45.1542 1137.01 45.5975 1137.35 46.1605C1137.68 46.7236 1137.84 47.3686 1137.84 48.0957C1137.84 48.8228 1137.68 49.47 1137.34 50.0375C1137 50.605 1136.54 51.0505 1135.98 51.3741C1135.41 51.6978 1134.79 51.8596 1134.09 51.8596ZM1134.09 50.4631C1134.52 50.4631 1134.89 50.3611 1135.22 50.1572C1135.55 49.9533 1135.81 49.6717 1136 49.3126C1136.19 48.9535 1136.28 48.5479 1136.28 48.0957C1136.28 47.6435 1136.19 47.2412 1136 46.8887C1135.81 46.5363 1135.55 46.257 1135.22 46.0508C1134.89 45.8447 1134.52 45.7416 1134.09 45.7416C1133.67 45.7416 1133.3 45.8447 1132.97 46.0508C1132.64 46.257 1132.38 46.5363 1132.18 46.8887C1131.99 47.2412 1131.89 47.6435 1131.89 48.0957C1131.89 48.5479 1131.99 48.9535 1132.18 49.3126C1132.38 49.6717 1132.64 49.9533 1132.97 50.1572C1133.3 50.3611 1133.67 50.4631 1134.09 50.4631ZM1139.64 51.7V44.5047H1141.07V46.0674L1140.89 45.8214C1141.04 45.3337 1141.31 44.9658 1141.71 44.7175C1142.11 44.4692 1142.56 44.3451 1143.08 44.3451C1143.65 44.3451 1144.17 44.4992 1144.62 44.8073C1145.07 45.1154 1145.37 45.5221 1145.52 46.0275L1145.09 46.0608C1145.3 45.4889 1145.63 45.06 1146.07 44.774C1146.51 44.4881 1147.01 44.3451 1147.57 44.3451C1148.07 44.3451 1148.53 44.4604 1148.93 44.6909C1149.33 44.9214 1149.65 45.2406 1149.89 45.6485C1150.13 46.0564 1150.25 46.5241 1150.25 47.0516V51.7H1148.75V47.4573C1148.75 47.0982 1148.69 46.7923 1148.56 46.5396C1148.43 46.2869 1148.25 46.0907 1148.03 45.9511C1147.8 45.8114 1147.53 45.7416 1147.23 45.7416C1146.93 45.7416 1146.67 45.8114 1146.43 45.9511C1146.2 46.0907 1146.02 46.288 1145.89 46.5429C1145.76 46.7978 1145.69 47.1026 1145.69 47.4573V51.7H1144.2V47.4573C1144.2 47.0982 1144.13 46.7923 1144 46.5396C1143.87 46.2869 1143.7 46.0907 1143.47 45.9511C1143.24 45.8114 1142.98 45.7416 1142.67 45.7416C1142.37 45.7416 1142.11 45.8114 1141.87 45.9511C1141.64 46.0907 1141.46 46.288 1141.33 46.5429C1141.2 46.7978 1141.14 47.1026 1141.14 47.4573V51.7H1139.64ZM1152.2 51.7V44.5047H1153.63V46.0674L1153.45 45.8214C1153.6 45.3337 1153.87 44.9658 1154.27 44.7175C1154.66 44.4692 1155.12 44.3451 1155.63 44.3451C1156.21 44.3451 1156.72 44.4992 1157.17 44.8073C1157.62 45.1154 1157.92 45.5221 1158.07 46.0275L1157.65 46.0608C1157.86 45.4889 1158.18 45.06 1158.62 44.774C1159.06 44.4881 1159.57 44.3451 1160.13 44.3451C1160.63 44.3451 1161.08 44.4604 1161.49 44.6909C1161.89 44.9214 1162.21 45.2406 1162.45 45.6485C1162.68 46.0564 1162.8 46.5241 1162.8 47.0516V51.7H1161.31V47.4573C1161.31 47.0982 1161.24 46.7923 1161.11 46.5396C1160.98 46.2869 1160.81 46.0907 1160.58 45.9511C1160.35 45.8114 1160.09 45.7416 1159.78 45.7416C1159.49 45.7416 1159.22 45.8114 1158.99 45.9511C1158.76 46.0907 1158.57 46.288 1158.44 46.5429C1158.31 46.7978 1158.25 47.1026 1158.25 47.4573V51.7H1156.75V47.4573C1156.75 47.0982 1156.69 46.7923 1156.56 46.5396C1156.43 46.2869 1156.25 46.0907 1156.03 45.9511C1155.8 45.8114 1155.53 45.7416 1155.23 45.7416C1154.93 45.7416 1154.66 45.8114 1154.43 45.9511C1154.2 46.0907 1154.02 46.288 1153.89 46.5429C1153.76 46.7978 1153.69 47.1026 1153.69 47.4573V51.7H1152.2ZM1167.32 51.8596C1166.78 51.8596 1166.3 51.7377 1165.89 51.4938C1165.48 51.25 1165.16 50.9098 1164.94 50.4731C1164.72 50.0364 1164.6 49.5299 1164.6 48.9535V44.5047H1166.1V48.8139C1166.1 49.142 1166.17 49.4301 1166.3 49.6784C1166.43 49.9267 1166.62 50.1195 1166.86 50.2569C1167.1 50.3944 1167.38 50.4631 1167.69 50.4631C1168 50.4631 1168.28 50.3933 1168.52 50.2536C1168.77 50.114 1168.95 49.9156 1169.09 49.6584C1169.22 49.4013 1169.29 49.0976 1169.29 48.7474V44.5047H1170.79V51.7H1169.36V50.2902L1169.53 50.4764C1169.36 50.9242 1169.08 51.2666 1168.68 51.5038C1168.29 51.741 1167.84 51.8596 1167.32 51.8596ZM1172.88 51.7V44.5047H1174.31V45.9145L1174.14 45.7283C1174.31 45.2805 1174.59 44.9381 1174.98 44.7009C1175.38 44.4637 1175.83 44.3451 1176.35 44.3451C1176.88 44.3451 1177.34 44.4604 1177.75 44.6909C1178.16 44.9214 1178.48 45.2406 1178.71 45.6485C1178.95 46.0564 1179.06 46.5248 1179.06 47.0537V51.7H1177.57V47.4573C1177.57 47.0982 1177.5 46.7923 1177.37 46.5396C1177.23 46.2869 1177.05 46.0907 1176.81 45.9511C1176.57 45.8114 1176.29 45.7416 1175.98 45.7416C1175.67 45.7416 1175.39 45.8114 1175.14 45.9511C1174.9 46.0907 1174.71 46.288 1174.58 46.5429C1174.44 46.7978 1174.37 47.1026 1174.37 47.4573V51.7H1172.88ZM1181 51.7V44.5047H1182.5V51.7H1181ZM1181 43.5205V41.7915H1182.5V43.5205H1181ZM1187.71 51.7798C1186.95 51.7798 1186.36 51.5681 1185.95 51.1447C1185.53 50.7213 1185.33 50.1239 1185.33 49.3525V45.868H1184.06V44.5047H1184.26C1184.59 44.5047 1184.85 44.4083 1185.04 44.2154C1185.23 44.0226 1185.33 43.7577 1185.33 43.4207V42.8555H1186.82V44.5047H1188.46V45.868H1186.82V49.286C1186.82 49.5299 1186.86 49.7382 1186.94 49.9111C1187.02 50.084 1187.15 50.217 1187.33 50.3101C1187.51 50.4032 1187.74 50.4498 1188.03 50.4498C1188.09 50.4498 1188.17 50.4454 1188.26 50.4365C1188.35 50.4276 1188.43 50.4188 1188.51 50.4099V51.7C1188.39 51.7222 1188.26 51.741 1188.11 51.7565C1187.95 51.772 1187.82 51.7798 1187.71 51.7798ZM1190.95 54.626C1190.77 54.626 1190.6 54.6116 1190.43 54.5828C1190.25 54.554 1190.09 54.5063 1189.95 54.4398V53.1563C1190.05 53.1785 1190.18 53.2018 1190.34 53.2262C1190.49 53.2506 1190.64 53.2627 1190.78 53.2627C1191.19 53.2627 1191.5 53.1719 1191.7 52.9901C1191.9 52.8083 1192.08 52.5312 1192.24 52.1588L1192.71 51.0616L1192.69 52.3317L1189.58 44.5047H1191.19L1193.49 50.503H1192.95L1195.23 44.5047H1196.86L1193.67 52.4913C1193.5 52.9125 1193.29 53.2849 1193.04 53.6085C1192.79 53.9322 1192.5 54.1827 1192.15 54.36C1191.81 54.5373 1191.41 54.626 1190.95 54.626Z" fill="white"/>
<rect opacity="0.2" y="92" width="1280" height="1" fill="#ECFAB9"/>
<defs>
<filter id="filter1_dd_1_163" x="1047.73" y="23.1" width="183.448" height="63.71" filterUnits="userSpaceOnUse" color-interpolation-filters="sRGB">
<feFlood flood-opacity="0" result="BackgroundImageFix"/>
<feColorMatrix in="SourceAlpha" type="matrix" values="0 0 0 0 0 0 0 0 0 0 0 0 0 0 0 0 0 0 127 0" result="hardAlpha"/>
<feMorphology radius="4" operator="erode" in="SourceAlpha" result="effect1_dropShadow_1_163"/>
<feOffset dy="4"/>
<feGaussianBlur stdDeviation="3"/>
<feComposite in2="hardAlpha" operator="out"/>
<feColorMatrix type="matrix" values="0 0 0 0 0 0 0 0 0 0 0 0 0 0 0 0 0 0 0.1 0"/>
<feBlend mode="normal" in2="BackgroundImageFix" result="effect1_dropShadow_1_163"/>
<feColorMatrix in="SourceAlpha" type="matrix" values="0 0 0 0 0 0 0 0 0 0 0 0 0 0 0 0 0 0 127 0" result="hardAlpha"/>
<feMorphology radius="3" operator="erode" in="SourceAlpha" result="effect2_dropShadow_1_163"/>
<feOffset dy="10"/>
<feGaussianBlur stdDeviation="7.5"/>
<feComposite in2="hardAlpha" operator="out"/>
<feColorMatrix type="matrix" values="0 0 0 0 0 0 0 0 0 0 0 0 0 0 0 0 0 0 0.1 0"/>
<feBlend mode="normal" in2="effect1_dropShadow_1_163" result="effect2_dropShadow_1_163"/>
<feBlend mode="normal" in="SourceGraphic" in2="effect2_dropShadow_1_163" result="shape"/>
</filter>
<linearGradient id="paint0_linear_1_163" x1="1106.22" y1="-7.45361" x2="1181.08" y2="99.4536" gradientUnits="userSpaceOnUse">
<stop stop-color="#23422A"/>
<stop offset="1" stop-color="#3A5A40"/>
</linearGradient>
</defs>
</svg>
